<svg width="378" height="378" xmlns="http://www.w3.org/2000/svg" xmlns:xlink="http://www.w3.org/1999/xlink">
    <rect x="227" y="89.0001" width="51" height="29.9999" fill="#FFFFFF" />
    <rect x="99" y="265" width="51" height="31.0003" fill="#FFFFFF" />
    <path d="M44.8608 249.391C39.2866 243.817 39.2866 234.779 44.8608 229.205L44.8608 229.205C50.435 223.631 59.4725 223.631 65.0467 229.205L107.366 271.524C112.94 277.099 112.94 286.136 107.366 291.71L107.366 291.71C101.792 297.285 92.7544 297.285 87.1803 291.71Z" />
    <path d="M134 280.5C134 250.4 158.177 226 188 226 217.823 226 242 250.4 242 280.5 242 310.6 217.823 335 188 335 158.177 335 134 310.6 134 280.5ZM162.89 280.5C162.89 294.644 174.132 306.11 188 306.11 201.868 306.11 213.11 294.644 213.11 280.5 213.11 266.356 201.868 254.89 188 254.89 174.132 254.89 162.89 266.356 162.89 280.5Z" />
    <path d="M69 238C69 245.732 62.732 252 55 252L55 252C47.268 252 41 245.732 41 238L41 86.9999C41 79.268 47.268 73 55 73L55 73C62.732 73 69 79.268 69 86.9999Z" />
    <path d="M331.806 135.111C337.38 140.685 337.38 149.723 331.806 155.297L331.806 155.297C326.232 160.871 317.194 160.871 311.62 155.297L269.301 112.977C263.726 107.403 263.726 98.3657 269.301 92.7915L269.301 92.7915C274.875 87.2173 283.912 87.2173 289.486 92.7914Z" />
    <path d="M242 104C242 133.823 217.823 158 188 158 158.177 158 134 133.823 134 104 134 74.1766 158.177 50 188 50 217.823 50 242 74.1766 242 104ZM213.11 104C213.11 90.1321 201.868 78.89 188 78.89 174.132 78.89 162.89 90.1321 162.89 104 162.89 117.868 174.132 129.11 188 129.11 201.868 129.11 213.11 117.868 213.11 104Z" />
    <path d="M307 146.5C307 138.492 313.492 132 321.5 132L321.5 132C329.508 132 336 138.492 336 146.5L336 297.5C336 305.508 329.508 312 321.5 312L321.5 312C313.492 312 307 305.508 307 297.5Z" />
    <style>
      path {
        fill: black;
      }
      @media (prefers-color-scheme: dark) {
        path {
          fill: white;
        }
      }
    </style>
</svg>